<?xml version="1.0" encoding="UTF-8"?>
<svg version="1.1" xmlns="http://www.w3.org/2000/svg" width="376" height="376">
<path d="M0 0 C0.79132324 0.18272461 1.58264648 0.36544922 2.39794922 0.55371094 C27.52210586 6.44649407 49.40211924 18.17189908 68 36 C68.81984375 36.75667969 69.6396875 37.51335937 70.484375 38.29296875 C93.8192553 60.50458618 108.34777119 95.02020762 109.16113281 127.18676758 C109.18099069 128.67262204 109.19472922 130.15856782 109.203125 131.64453125 C109.20882507 132.45379562 109.21452515 133.26306 109.22039795 134.09684753 C109.22979274 135.80535602 109.23635979 137.51388218 109.24023438 139.22241211 C109.24983132 141.76776203 109.28086164 144.31226449 109.3125 146.85742188 C109.40938503 161.75947759 107.88961862 176.58782006 103.4375 190.875 C103.07265503 192.07974976 103.07265503 192.07974976 102.70043945 193.30883789 C100.27281703 200.89616428 96.92145429 208.00681725 93.33959961 215.11083984 C92.92202393 215.93922363 92.50444824 216.76760742 92.07421875 217.62109375 C91.69869873 218.3473999 91.32317871 219.07370605 90.9362793 219.82202148 C89.49092289 223.18421822 88.48301024 225.68077465 89.86108398 229.19726562 C90.31813721 229.92623047 90.77519043 230.65519531 91.24609375 231.40625 C92.00889648 232.64761719 92.00889648 232.64761719 92.78710938 233.9140625 C93.33173828 234.76742187 93.87636719 235.62078125 94.4375 236.5 C95.20223633 237.73363281 95.20223633 237.73363281 95.98242188 238.9921875 C97.06048803 240.72884921 98.17437593 242.44364334 99.31787109 244.13793945 C101 247 101 247 102.12353516 250.50854492 C103.72837576 254.65405199 105.12892984 257.72857253 109 260 C118.16452805 262.24766577 127.98375136 261.5846751 137.36303711 261.35620117 C140.9293243 261.28327013 144.49557811 261.28382797 148.0625 261.27929688 C155.04655196 261.26508514 162.01334167 261.12961866 169 261 C169 276.84 169 292.68 169 309 C130.39 309 91.78 309 52 309 C42.7972973 290.59459459 42.7972973 290.59459459 38.5 281.5 C38.05914062 280.57058594 37.61828125 279.64117187 37.1640625 278.68359375 C36.10788214 276.45643083 35.05318075 274.22858248 34 272 C33.46334717 272.21615967 32.92669434 272.43231934 32.3737793 272.6550293 C-10.06438439 289.61858024 -54.19150606 293.0365733 -97.09130859 275.18041992 C-109.97013116 269.58087199 -121.33118215 262.13732626 -132 253 C-132.88171875 252.26394531 -133.7634375 251.52789062 -134.671875 250.76953125 C-160.15348327 228.70706534 -174.92009403 195.25642384 -178 162 C-178.14651416 159.11797597 -178.18682208 156.24091181 -178.203125 153.35546875 C-178.20882507 152.54620438 -178.21452515 151.73694 -178.22039795 150.90315247 C-178.22979274 149.19464398 -178.23635979 147.48611782 -178.24023438 145.77758789 C-178.24983132 143.23223797 -178.28086164 140.68773551 -178.3125 138.14257812 C-178.40935597 123.24499255 -176.89778621 108.40630714 -172.4375 94.125 C-172.18774414 93.31530762 -171.93798828 92.50561523 -171.68066406 91.67138672 C-165.12503214 71.44202548 -154.67531584 54.30896506 -140 39 C-139.24332031 38.18015625 -138.48664063 37.3603125 -137.70703125 36.515625 C-117.286253 15.06214834 -87.98021988 2.42706062 -59 -2 C-57.86949219 -2.18304688 -56.73898438 -2.36609375 -55.57421875 -2.5546875 C-37.67645765 -4.7001064 -17.48577629 -4.35640125 0 0 Z M-89 93 C-102.58226325 111.18681246 -106.30156532 134.03505534 -103.53515625 156.25 C-101.47008322 169.85615339 -96.63722684 182.23698119 -88 193 C-87.49082031 193.68320313 -86.98164062 194.36640625 -86.45703125 195.0703125 C-76.03751557 208.1911841 -59.27856556 215.66422348 -43 218 C-23.65555807 219.80905469 -5.53468107 214.6845832 9.875 202.6875 C25.04411529 189.47568991 32.73996786 171.74329963 35 152 C36.44466809 127.94202732 31.65518225 106.93897579 15.7578125 88.3828125 C2.74603133 74.34715347 -15.38153124 67.51685673 -34.3125 66.6875 C-55.8454926 67.32082331 -75.02118106 76.66663037 -89 93 Z " fill="#000000" transform="translate(207,39)"/>
<path d="M0 0 C0.33 1.32 0.66 2.64 1 4 C38.29 4 75.58 4 114 4 C114 19.84 114 35.68 114 52 C75.39 52 36.78 52 -3 52 C-7.79515747 42.40968505 -12.54834957 32.8684715 -17 23.125 C-17.73283203 21.54138672 -17.73283203 21.54138672 -18.48046875 19.92578125 C-18.94066406 18.92160156 -19.40085938 17.91742188 -19.875 16.8828125 C-20.28492188 15.98965332 -20.69484375 15.09649414 -21.1171875 14.17626953 C-22 12 -22 12 -22 10 C-18.71158124 8.32686677 -15.41875318 6.66260393 -12.125 5 C-11.18785156 4.52304687 -10.25070313 4.04609375 -9.28515625 3.5546875 C-8.38925781 3.10351562 -7.49335938 2.65234375 -6.5703125 2.1875 C-5.74289551 1.76855469 -4.91547852 1.34960938 -4.06298828 0.91796875 C-2 0 -2 0 0 0 Z " fill="#0F1115" transform="translate(262,296)"/>
</svg>
