<?xml version="1.0" encoding="UTF-8"?>
<svg version="1.1" xmlns="http://www.w3.org/2000/svg" width="1750" height="500">
<path d="M0 0 C0.79132324 0.18272461 1.58264648 0.36544922 2.39794922 0.55371094 C27.52210586 6.44649407 49.40211924 18.17189908 68 36 C68.81984375 36.75667969 69.6396875 37.51335937 70.484375 38.29296875 C93.8192553 60.50458618 108.34777119 95.02020762 109.16113281 127.18676758 C109.18099069 128.67262204 109.19472922 130.15856782 109.203125 131.64453125 C109.20882507 132.45379562 109.21452515 133.26306 109.22039795 134.09684753 C109.22979274 135.80535602 109.23635979 137.51388218 109.24023438 139.22241211 C109.24983132 141.76776203 109.28086164 144.31226449 109.3125 146.85742188 C109.40938503 161.75947759 107.88961862 176.58782006 103.4375 190.875 C103.07265503 192.07974976 103.07265503 192.07974976 102.70043945 193.30883789 C100.27281703 200.89616428 96.92145429 208.00681725 93.33959961 215.11083984 C92.92202393 215.93922363 92.50444824 216.76760742 92.07421875 217.62109375 C91.69869873 218.3473999 91.32317871 219.07370605 90.9362793 219.82202148 C89.49092289 223.18421822 88.48301024 225.68077465 89.86108398 229.19726562 C90.31813721 229.92623047 90.77519043 230.65519531 91.24609375 231.40625 C92.00889648 232.64761719 92.00889648 232.64761719 92.78710938 233.9140625 C93.33173828 234.76742187 93.87636719 235.62078125 94.4375 236.5 C95.20223633 237.73363281 95.20223633 237.73363281 95.98242188 238.9921875 C97.02904532 240.678198 98.10064729 242.34896832 99.19708979 244.00301363 C101 247 101 247 102.34154832 250.32102187 C105.2689593 256.84329158 105.2689593 256.84329158 110.97703531 260.750442 C117.29788665 262.02418416 123.7635178 261.72030256 130.17764282 261.61523914 C132.39212038 261.62656303 134.60657484 261.64359063 136.82096988 261.6658099 C142.93311166 261.71049804 149.04251792 261.67382691 155.15452437 261.62439972 C161.10877374 261.5890436 167.06267324 261.61503197 173.01690827 261.63930023 C185.34488196 261.68736942 197.67210404 261.67387659 210.0000515 261.62704659 C222.49412712 261.579837 234.98776767 261.56096704 247.48192787 261.5768013 C248.27081092 261.57778424 249.05969396 261.57876718 249.87248255 261.5797799 C253.89494078 261.58492274 257.91739822 261.59052784 261.9398556 261.5962962 C291.06141255 261.63711187 320.1826503 261.61503515 349.3041687 261.55968666 C378.14627172 261.50505341 406.98819648 261.47728675 435.83035278 261.48558617 C436.7258768 261.48583162 437.62140081 261.48607707 438.54406192 261.48632996 C446.72322211 261.48858606 454.90238216 261.49117359 463.08154212 261.49415877 C483.41456519 261.50157574 503.74758779 261.50483576 524.08061218 261.50527477 C525.00656182 261.5052981 525.93251146 261.50532143 526.88652018 261.50534546 C571.93528536 261.50611743 616.98398359 261.45899662 662.03271484 261.40795898 C677.66680862 261.39027307 693.30090259 261.37279883 708.93499756 261.35620117 C709.90461768 261.35517158 710.87423781 261.35414199 711.87324036 261.35308119 C756.94339768 261.30551355 802.01354654 261.29195481 847.08372636 261.28717614 C850.00950028 261.28686531 852.93527419 261.28653982 855.8610481 261.28621134 C875.25020721 261.28405792 894.63936634 261.28249084 914.02852553 261.28131637 C952.60856567 261.27897428 991.18860507 261.27318697 1029.76864441 261.26503299 C1031.60595133 261.2646447 1033.44325826 261.26425881 1035.28056519 261.26387534 C1117.99826763 261.24659121 1200.71592483 261.18922723 1283.43359375 261.11450195 C1284.20817548 261.11380247 1284.9827572 261.11310299 1285.7808111 261.11238231 C1324.52054324 261.07736757 1363.26027241 261.03974759 1402 261 C1402 276.84 1402 292.68 1402 309 C956.5 309 511 309 52 309 C42.7972973 290.59459459 42.7972973 290.59459459 38.5 281.5 C38.05914062 280.57058594 37.61828125 279.64117187 37.1640625 278.68359375 C36.10788214 276.45643083 35.05318075 274.22858248 34 272 C33.46334717 272.21615967 32.92669434 272.43231934 32.3737793 272.6550293 C-10.06438439 289.61858024 -54.19150606 293.0365733 -97.09130859 275.18041992 C-109.97013116 269.58087199 -121.33118215 262.13732626 -132 253 C-132.88171875 252.26394531 -133.7634375 251.52789062 -134.671875 250.76953125 C-160.15348327 228.70706534 -174.92009403 195.25642384 -178 162 C-178.14651416 159.11797597 -178.18682208 156.24091181 -178.203125 153.35546875 C-178.20882507 152.54620438 -178.21452515 151.73694 -178.22039795 150.90315247 C-178.22979274 149.19464398 -178.23635979 147.48611782 -178.24023438 145.77758789 C-178.24983132 143.23223797 -178.28086164 140.68773551 -178.3125 138.14257812 C-178.40935597 123.24499255 -176.89778621 108.40630714 -172.4375 94.125 C-172.18774414 93.31530762 -171.93798828 92.50561523 -171.68066406 91.67138672 C-165.12503214 71.44202548 -154.67531584 54.30896506 -140 39 C-139.24332031 38.18015625 -138.48664063 37.3603125 -137.70703125 36.515625 C-117.286253 15.06214834 -87.98021988 2.42706062 -59 -2 C-57.86949219 -2.18304688 -56.73898438 -2.36609375 -55.57421875 -2.5546875 C-37.67645765 -4.7001064 -17.48577629 -4.35640125 0 0 Z M-89 93 C-102.58226325 111.18681246 -106.30156532 134.03505534 -103.53515625 156.25 C-101.47008322 169.85615339 -96.63722684 182.23698119 -88 193 C-87.49082031 193.68320312 -86.98164063 194.36640625 -86.45703125 195.0703125 C-76.03751557 208.1911841 -59.27856556 215.66422348 -43 218 C-23.65555807 219.80905469 -5.53468107 214.6845832 9.875 202.6875 C25.04411529 189.47568991 32.73996786 171.74329963 35 152 C36.44466809 127.94202732 31.65518225 106.93897579 15.7578125 88.3828125 C2.74603133 74.34715347 -15.38153124 67.51685673 -34.3125 66.6875 C-55.8454926 67.32082331 -75.02118106 76.66663037 -89 93 Z " fill="#0F1115" transform="translate(251,101)"/>
<path d="M0 0 C0.79132324 0.18272461 1.58264648 0.36544922 2.39794922 0.55371094 C27.52210586 6.44649407 49.40211924 18.17189908 68 36 C68.81984375 36.75667969 69.6396875 37.51335937 70.484375 38.29296875 C93.8192553 60.50458618 108.34777119 95.02020762 109.16113281 127.18676758 C109.18099069 128.67262204 109.19472922 130.15856782 109.203125 131.64453125 C109.20882507 132.45379562 109.21452515 133.26306 109.22039795 134.09684753 C109.22979274 135.80535602 109.23635979 137.51388218 109.24023438 139.22241211 C109.24983132 141.76776203 109.28086164 144.31226449 109.3125 146.85742188 C109.40938503 161.75947759 107.88961862 176.58782006 103.4375 190.875 C103.07265503 192.07974976 103.07265503 192.07974976 102.70043945 193.30883789 C100.27281703 200.89616428 96.92145429 208.00681725 93.33959961 215.11083984 C92.92202393 215.93922363 92.50444824 216.76760742 92.07421875 217.62109375 C91.69869873 218.3473999 91.32317871 219.07370605 90.9362793 219.82202148 C89.49092289 223.18421822 88.48301024 225.68077465 89.86108398 229.19726562 C90.31813721 229.92623047 90.77519043 230.65519531 91.24609375 231.40625 C91.75043945 232.22697998 92.25478516 233.04770996 92.77441406 233.89331055 C93.32323242 234.75351807 93.87205078 235.61372559 94.4375 236.5 C94.9850293 237.38405518 95.53255859 238.26811035 96.09667969 239.17895508 C97.71871932 241.79395885 99.35842579 244.39723083 101 247 C102.24036131 248.99590682 103.47549424 250.99488367 104.70727539 252.99609375 C105.68904179 254.58861953 106.68015609 256.17537162 107.671875 257.76171875 C109 260 109 260 109 261 C91.51 261 74.02 261 56 261 C55.67 259.68 55.34 258.36 55 257 C54.40461426 257.30292969 53.80922852 257.60585938 53.19580078 257.91796875 C50.50761715 259.28279543 47.81636828 260.64146485 45.125 262 C44.18785156 262.47695313 43.25070312 262.95390625 42.28515625 263.4453125 C41.38925781 263.89648438 40.49335938 264.34765625 39.5703125 264.8125 C38.74289551 265.23144531 37.91547852 265.65039062 37.06298828 266.08203125 C35 267 35 267 33 267 C33.33 268.32 33.66 269.64 34 271 C1.02073899 289.56317686 -41.55720945 291.89102297 -77.58325195 282.05004883 C-97.97114822 276.13401438 -115.85751305 266.82525899 -132 253 C-132.88171875 252.26394531 -133.7634375 251.52789062 -134.671875 250.76953125 C-160.15348327 228.70706534 -174.92009403 195.25642384 -178 162 C-178.14651416 159.11797597 -178.18682208 156.24091181 -178.203125 153.35546875 C-178.20882507 152.54620438 -178.21452515 151.73694 -178.22039795 150.90315247 C-178.22979274 149.19464398 -178.23635979 147.48611782 -178.24023438 145.77758789 C-178.24983132 143.23223797 -178.28086164 140.68773551 -178.3125 138.14257812 C-178.40935597 123.24499255 -176.89778621 108.40630714 -172.4375 94.125 C-172.18774414 93.31530762 -171.93798828 92.50561523 -171.68066406 91.67138672 C-165.12503214 71.44202548 -154.67531584 54.30896506 -140 39 C-139.24332031 38.18015625 -138.48664063 37.3603125 -137.70703125 36.515625 C-117.286253 15.06214834 -87.98021988 2.42706062 -59 -2 C-57.86949219 -2.18304688 -56.73898438 -2.36609375 -55.57421875 -2.5546875 C-37.67645765 -4.7001064 -17.48577629 -4.35640125 0 0 Z M-89 93 C-102.58226325 111.18681246 -106.30156532 134.03505534 -103.53515625 156.25 C-101.47008322 169.85615339 -96.63722684 182.23698119 -88 193 C-87.49082031 193.68320312 -86.98164063 194.36640625 -86.45703125 195.0703125 C-76.03751557 208.1911841 -59.27856556 215.66422348 -43 218 C-23.65555807 219.80905469 -5.53468107 214.6845832 9.875 202.6875 C25.04411529 189.47568991 32.73996786 171.74329963 35 152 C36.44466809 127.94202732 31.65518225 106.93897579 15.7578125 88.3828125 C2.74603133 74.34715347 -15.38153124 67.51685673 -34.3125 66.6875 C-55.8454926 67.32082331 -75.02118106 76.66663037 -89 93 Z " fill="#000000" transform="translate(251,101)"/>
<path d="M0 0 C6.93 0 13.86 0 21 0 C25.19649966 4.19649966 29.13657659 8.23611924 32.984375 12.69921875 C35.44480269 15.5077302 37.96974992 18.25461879 40.5 21 C44.10032448 24.90963279 47.64418014 28.85866939 51.125 32.875 C53.54550075 35.61823418 56.02200642 38.30884568 58.5 41 C62.10012756 44.90981595 65.64417605 48.85866468 69.125 52.875 C71.54550075 55.61823418 74.02200642 58.30884568 76.5 61 C80.09265944 64.90170541 83.63178806 68.84016473 87.1015625 72.8515625 C90.12780606 76.27632373 93.24074517 79.62232091 96.35742188 82.96484375 C99.89154764 86.78309528 99.89154764 86.78309528 101 89 C104.01507796 87.6736245 105.79846131 86.35485683 107.875 83.8125 C111.41491785 79.62410582 115.12108452 75.62038086 118.875 71.625 C123.55127995 66.63700888 128.17712263 61.61299616 132.734375 56.515625 C135.9300606 52.96731202 139.17375265 49.46422274 142.41625977 45.95874023 C145.80702272 42.29289082 149.18959077 38.61978393 152.5625 34.9375 C153.01222168 34.44652832 153.46194336 33.95555664 153.92529297 33.44970703 C154.83062602 32.46115485 155.73589963 31.47254823 156.64111328 30.48388672 C158.46818246 28.48875081 160.29625602 26.49453691 162.12451172 24.50048828 C163.03653136 23.50558719 163.94831786 22.51047232 164.85986328 21.51513672 C167.23373484 18.92352559 169.61173161 16.33587173 171.99609375 13.75390625 C172.48851562 13.21958984 172.9809375 12.68527344 173.48828125 12.13476562 C174.85439783 10.65265801 176.2220707 9.17198532 177.58984375 7.69140625 C179.81630041 5.20513617 181.91510443 2.60611946 184 0 C190.93 0 197.86 0 205 0 C205 69.63 205 139.26 205 211 C186.85 211 168.7 211 150 211 C149.67 180.97 149.34 150.94 149 120 C139.61589531 129.25940994 139.61589531 129.25940994 130.9375 138.84375 C127.70254998 142.44393631 124.22076458 145.79877291 120.77978516 149.20068359 C117.145763 152.80932997 113.66967091 156.49557183 110.3671875 160.4140625 C109.91601562 160.93742188 109.46484375 161.46078125 109 162 C108.59007812 162.56460938 108.18015625 163.12921875 107.7578125 163.7109375 C106 165 106 165 102.75 165.59375 C97.53510052 164.76805758 95.468677 162.2953668 92 158.5 C91.38479492 157.85579102 90.76958984 157.21158203 90.13574219 156.54785156 C86.55010426 152.76798365 83.06859566 148.89924942 79.703125 144.921875 C76.76986097 141.61186147 73.57095081 138.56401969 70.42578125 135.45703125 C67.70678303 132.70300568 65.16288681 129.84342112 62.66796875 126.88671875 C60.55160407 124.49279804 58.25940875 122.25940875 56 120 C55.67 150.03 55.34 180.06 55 211 C36.85 211 18.7 211 0 211 C0 141.37 0 71.74 0 0 Z " fill="#000000" transform="translate(1448,133)"/>
<path d="M0 0 C22 0 22 0 28.40966797 3.92797852 C30.16129118 5.68963693 31.85529563 7.51016089 33.4921875 9.37890625 C34.42298771 10.35350714 35.35901444 11.32313948 36.29983521 12.28807068 C38.73275293 14.80941358 41.0927311 17.38871584 43.44104004 19.9887085 C45.83094684 22.61166529 48.28209594 25.17588008 50.73046875 27.74414062 C54.32392404 31.51941147 57.87439302 35.32896302 61.40185547 39.16625977 C64.76689844 42.77888463 68.2521536 46.06928786 72.01199341 49.26280212 C75.7949311 52.56848097 79.28103821 56.18022149 82.8125 59.75 C83.62565674 60.56694336 84.43881348 61.38388672 85.27661133 62.22558594 C88.7217734 65.68695042 92.1609029 69.15428591 95.60058594 72.62109375 C98.12746508 75.16615188 100.65741315 77.70813131 103.1875 80.25 C103.95231689 81.02311523 104.71713379 81.79623047 105.50512695 82.59277344 C109.55995995 86.6658454 113.68629239 90.57152281 118.0715332 94.28808594 C120.47621859 96.42274272 122.72631671 98.72631671 125 101 C125.33 68 125.66 35 126 1 C144.15 1 162.3 1 181 1 C181 70.3 181 139.6 181 211 C158.13477423 211 158.13477423 211 149.48449707 202.55090332 C148.95529663 201.93275757 148.42609619 201.31461182 147.88085938 200.67773438 C147.27266357 199.98123779 146.66446777 199.28474121 146.0378418 198.56713867 C145.427229 197.86435791 144.81661621 197.16157715 144.1875 196.4375 C142.91085889 195.04658611 141.62896789 193.66047201 140.34179688 192.27929688 C138.52221403 190.32431325 136.71219972 188.36663435 134.94169617 186.36705017 C131.52934256 182.51964157 127.93315531 179.12059607 124.02729797 175.77772522 C120.62134117 172.79106249 117.4628765 169.56565768 114.28125 166.34375 C113.22798523 165.2848053 113.22798523 165.2848053 112.15344238 164.20446777 C109.18616234 161.22102625 106.22494637 158.2315929 103.26318359 155.24267578 C101.08381535 153.04509421 98.90135053 150.85062062 96.71875 148.65625 C96.063302 147.99250366 95.407854 147.32875732 94.73254395 146.64489746 C94.09828491 146.00733521 93.46402588 145.36977295 92.81054688 144.71289062 C92.26619995 144.16330688 91.72185303 143.61372314 91.16101074 143.04748535 C87.86891339 139.9283333 84.41300082 136.98637572 81 134 C73.08 126.08 65.16 118.16 57 110 C56.67 143.33 56.34 176.66 56 211 C37.52 211 19.04 211 0 211 C0 141.37 0 71.74 0 0 Z " fill="#000000" transform="translate(829,133)"/>
<path d="M0 0 C17.16 0 34.32 0 52 0 C52.029729 6.42714478 52.029729 6.42714478 52.06005859 12.98413086 C52.12698404 27.14558825 52.20452478 41.30697284 52.28752708 55.46834469 C52.33758927 64.05382962 52.3840328 72.63930531 52.421875 81.22485352 C52.45487826 88.71045063 52.49475521 96.19597466 52.54279006 103.68149096 C52.5679724 107.64279473 52.58977781 111.60405052 52.60334396 115.56541252 C52.6162397 119.29923541 52.63837386 123.03289308 52.66738319 126.76662445 C52.68067778 128.77946781 52.68436589 130.79236757 52.68769836 132.80525208 C52.77633379 142.45679836 53.28669105 150.97048472 59 159 C66.19911012 165.74115146 75.95776294 168.39660109 85.66796875 168.2109375 C95.89125729 167.28621793 104.63424131 164.03741387 111.4375 156.1875 C115.56906879 147.75909967 115.3037467 138.94618283 115.31884766 129.75952148 C115.32816156 128.33948709 115.33833238 126.9194581 115.34928894 125.49943542 C115.37643836 121.6695234 115.39169332 117.83964785 115.40471697 114.00966525 C115.42041388 109.99778006 115.44718297 105.98596861 115.4727478 101.97413635 C115.51941996 94.38836377 115.5562198 86.80257714 115.58942068 79.21673495 C115.62772407 70.57577429 115.67711254 61.93488792 115.72740483 53.29399002 C115.83055262 35.52937486 115.91840544 17.76472813 116 0 C133.16 0 150.32 0 168 0 C168.09051299 20.2112019 168.16410532 40.42223809 168.20724869 60.63359165 C168.22781892 70.01939241 168.2558328 79.40505771 168.30175781 88.79077148 C168.34179605 96.97734818 168.367473 105.16382672 168.37635398 113.35049862 C168.38154016 117.6798859 168.39361209 122.0089925 168.42292023 126.33828926 C168.45035879 130.42508193 168.45838854 134.51148211 168.45243073 138.59835815 C168.4535184 140.08691997 168.46130135 141.57549689 168.4768219 143.0639782 C168.68564845 164.15104845 161.89742261 181.73818 147 197 C125.08842107 216.69860296 98.50015608 220.49415208 70 219 C48.83778677 216.6274889 28.53853873 205.79467759 14.90234375 189.4921875 C2.63508019 172.7224338 -0.16788654 155.59042998 -0.11352539 135.32226562 C-0.11324295 133.84327191 -0.11340236 132.36427806 -0.1139679 130.88528442 C-0.11425366 126.89000539 -0.10839271 122.89475666 -0.10139394 118.89948463 C-0.09512355 114.71680481 -0.09455369 110.53412422 -0.09336853 106.35144043 C-0.09026606 98.43977309 -0.08206732 90.52811965 -0.07201904 82.61645842 C-0.06082419 73.60556354 -0.05533897 64.59466799 -0.05032361 55.58376789 C-0.03988377 37.0558358 -0.02155181 18.52792273 0 0 Z " fill="#000000" transform="translate(1230,134)"/>
<path d="M0 0 C17.16 0 34.32 0 52 0 C52.029729 6.42714478 52.029729 6.42714478 52.06005859 12.98413086 C52.12698404 27.14558825 52.20452478 41.30697284 52.28752708 55.46834469 C52.33758927 64.05382962 52.3840328 72.63930531 52.421875 81.22485352 C52.45487826 88.71045063 52.49475521 96.19597466 52.54279006 103.68149096 C52.5679724 107.64279473 52.58977781 111.60405052 52.60334396 115.56541252 C52.6162397 119.29923541 52.63837386 123.03289308 52.66738319 126.76662445 C52.68067778 128.77946781 52.68436589 130.79236757 52.68769836 132.80525208 C52.77633379 142.45679836 53.28669105 150.97048472 59 159 C66.19911012 165.74115146 75.95776294 168.39660109 85.66796875 168.2109375 C95.89125729 167.28621793 104.63424131 164.03741387 111.4375 156.1875 C115.56906879 147.75909967 115.3037467 138.94618283 115.31884766 129.75952148 C115.32816156 128.33948709 115.33833238 126.9194581 115.34928894 125.49943542 C115.37643836 121.6695234 115.39169332 117.83964785 115.40471697 114.00966525 C115.42041388 109.99778006 115.44718297 105.98596861 115.4727478 101.97413635 C115.51941996 94.38836377 115.5562198 86.80257714 115.58942068 79.21673495 C115.62772407 70.57577429 115.67711254 61.93488792 115.72740483 53.29399002 C115.83055262 35.52937486 115.91840544 17.76472813 116 0 C133.16 0 150.32 0 168 0 C168.09051299 20.2112019 168.16410532 40.42223809 168.20724869 60.63359165 C168.22781892 70.01939241 168.2558328 79.40505771 168.30175781 88.79077148 C168.34179605 96.97734818 168.367473 105.16382672 168.37635398 113.35049862 C168.38154016 117.6798859 168.39361209 122.0089925 168.42292023 126.33828926 C168.45035879 130.42508193 168.45838854 134.51148211 168.45243073 138.59835815 C168.4535184 140.08691997 168.46130135 141.57549689 168.4768219 143.0639782 C168.68564845 164.15104845 161.89742261 181.73818 147 197 C125.08842107 216.69860296 98.50015608 220.49415208 70 219 C48.83778677 216.6274889 28.53853873 205.79467759 14.90234375 189.4921875 C2.63508019 172.7224338 -0.16788654 155.59042998 -0.11352539 135.32226562 C-0.11324295 133.84327191 -0.11340236 132.36427806 -0.1139679 130.88528442 C-0.11425366 126.89000539 -0.10839271 122.89475666 -0.10139394 118.89948463 C-0.09512355 114.71680481 -0.09455369 110.53412422 -0.09336853 106.35144043 C-0.09026606 98.43977309 -0.08206732 90.52811965 -0.07201904 82.61645842 C-0.06082419 73.60556354 -0.05533897 64.59466799 -0.05032361 55.58376789 C-0.03988377 37.0558358 -0.02155181 18.52792273 0 0 Z " fill="#000000" transform="translate(397,134)"/>
<path d="M0 0 C1.5631897 0.00785522 1.5631897 0.00785522 3.15795898 0.01586914 C4.28266602 0.0190918 5.40737305 0.02231445 6.56616211 0.02563477 C7.75016602 0.03401367 8.93416992 0.04239258 10.15405273 0.05102539 C11.34192383 0.05553711 12.52979492 0.06004883 13.75366211 0.06469727 C16.69967499 0.07652864 19.64558954 0.09301252 22.59155273 0.11352539 C30.56237433 16.93589614 38.48594156 33.77565665 46.15405273 50.73852539 C51.11633815 61.71416427 56.15217515 72.6512522 61.27905273 83.55102539 C61.59434937 84.22142853 61.909646 84.89183167 62.23449707 85.58255005 C62.70466248 86.58220291 62.70466248 86.58220291 63.18432617 87.60205078 C63.80707667 88.92617444 64.42979836 90.25031166 65.05249023 91.57446289 C65.35574219 92.21929123 65.65899414 92.86411957 65.97143555 93.52848816 C70.32623943 102.79580425 74.60110162 112.10002998 78.88208008 121.40161133 C81.18711007 126.40832325 83.49710158 131.4127466 85.80827332 136.41662598 C87.70812559 140.53035099 89.60524124 144.64529345 91.49658203 148.76293945 C95.10311603 156.60735508 98.7323349 164.43823727 102.45571899 172.22801208 C104.14711614 175.77006272 105.82451093 179.31866218 107.50091553 182.86782837 C108.30290651 184.55554486 109.11173273 186.24003247 109.92779541 187.92098999 C111.06512248 190.26497754 112.17808935 192.6192087 113.28686523 194.97680664 C113.6234314 195.65442047 113.95999756 196.3320343 114.3067627 197.03018188 C117.0816392 203.0354965 116.59155273 205.71266754 116.59155273 213.11352539 C98.77155273 213.11352539 80.95155273 213.11352539 62.59155273 213.11352539 C58.63155273 204.86352539 54.67155273 196.61352539 50.59155273 188.11352539 C23.86155273 188.11352539 -2.86844727 188.11352539 -30.40844727 188.11352539 C-34.36844727 196.36352539 -38.32844727 204.61352539 -42.40844727 213.11352539 C-60.22844727 213.11352539 -78.04844727 213.11352539 -96.40844727 213.11352539 C-96.40844727 201.86867606 -96.40844727 201.86867606 -93.43579102 195.85961914 C-93.12180359 195.20964966 -92.80781616 194.55968018 -92.48431396 193.89001465 C-91.80816231 192.49582037 -91.12323406 191.10585355 -90.43026733 189.71994019 C-88.93372479 186.72647603 -87.48079237 183.71243999 -86.02375793 180.69960022 C-85.26676118 179.13593828 -84.50745373 177.573393 -83.74589539 176.01194763 C-80.36717471 169.07829716 -77.15603058 162.07619161 -73.99197388 155.04251099 C-72.46356982 151.64551961 -70.92686904 148.25229612 -69.38891602 144.85961914 C-69.07361435 144.16404404 -68.75831268 143.46846893 -68.43345642 142.7518158 C-64.31354364 133.68030943 -60.10671839 124.64895089 -55.90844727 115.61352539 C-49.88614717 102.65051283 -43.91177956 89.66808097 -38.01800537 76.64614868 C-31.83022659 62.97997311 -25.52269756 49.37009964 -19.19165039 35.76977539 C-18.43297232 34.13836472 -17.67450623 32.50685546 -16.91625977 30.87524414 C-16.54845398 30.08403168 -16.18064819 29.29281921 -15.80169678 28.47763062 C-12.54539994 21.4517339 -9.37169221 14.38943034 -6.23196411 7.31071472 C-5.87625336 6.51321304 -5.5205426 5.71571136 -5.15405273 4.89404297 C-4.84031708 4.1866951 -4.52658142 3.47934723 -4.20333862 2.75056458 C-2.99233727 0.25656757 -2.88972263 0.13621095 0 0 Z M9.59155273 88.11352539 C4.79361423 97.09079558 0.91658197 106.48408149 -3.04882812 115.84790039 C-4.23070072 118.63653875 -5.41986714 121.421991 -6.60961914 124.20727539 C-7.36200858 125.97792339 -8.11397731 127.74875022 -8.86547852 129.51977539 C-9.22164749 130.35303345 -9.57781647 131.1862915 -9.94477844 132.0447998 C-10.26899277 132.8132019 -10.59320709 133.581604 -10.92724609 134.37329102 C-11.21416824 135.04928345 -11.50109039 135.72527588 -11.79670715 136.42175293 C-12.52179686 138.12716507 -12.52179686 138.12716507 -12.40844727 140.11352539 C2.44155273 140.11352539 17.29155273 140.11352539 32.59155273 140.11352539 C29.63452733 132.42525935 26.69691736 124.83621059 23.38452148 117.31274414 C23.01426346 116.46549271 22.64400543 115.61824127 22.26252747 114.74531555 C21.10404588 112.09603742 19.94163832 109.44850472 18.77905273 106.80102539 C17.9825654 104.9814792 17.18633955 103.16181852 16.39038086 101.34204102 C14.46044602 96.93121197 12.52699363 92.52194103 10.59155273 88.11352539 C10.26155273 88.11352539 9.93155273 88.11352539 9.59155273 88.11352539 Z " fill="#000000" transform="translate(686.408447265625,130.886474609375)"/>
<path d="M0 0 C51.81 0 103.62 0 157 0 C157 15.84 157 31.68 157 48 C139.84 48 122.68 48 105 48 C105 101.46 105 154.92 105 210 C87.51 210 70.02 210 52 210 C52 156.54 52 103.08 52 48 C34.84 48 17.68 48 0 48 C0 32.16 0 16.32 0 0 Z " fill="#000000" transform="translate(1043,134)"/>
</svg>
